<svg width="24" height="24" xmlns="http://www.w3.org/2000/svg" viewBox="0 0 24 24">
  <path d="M12.48 10.92v3.28h7.84c-.24 1.84-.853 3.187-1.787 4.133-1.147 1.147-2.933 2.4-6.053 2.4-4.827 0-8.6-3.893-8.6-8.72s3.773-8.72 8.6-8.72c2.6 0 4.507 1.027 5.907 2.347l2.307-2.307C18.747 1.44 16.133 0 12.48 0 5.867 0 .307 5.387.307 12s5.56 12 12.173 12c3.573 0 6.267-1.173 8.373-3.36 2.16-2.16 2.84-5.213 2.84-7.667 0-.76-.053-1.467-.173-2.053H12.48z" fill="#4285F4"/>
  <path d="M6.52 8.013h2.92v1.467h-1.47v1.4H6.52v-2.867z" fill="#EA4335"/>
  <path d="M11.73 6.547h-1.47v2.867h1.47c.293 0 .533-.24.533-.533V7.08c0-.293-.24-.533-.533-.533z" fill="#FBBC05"/>
  <path d="M17.5 8.013h-2.92v1.467h1.47v1.4h1.45v-2.867z" fill="#34A853"/>
  <path d="M14.5 11.32h-1.47v2.867h1.47c.293 0 .533-.24.533-.533v-1.8c0-.293-.24-.533-.533-.533z" fill="#4285F4"/>
</svg> 